<?xml version="1.0" encoding="iso-8859-1"?>
<!-- Generator: Adobe Illustrator 18.0.0, SVG Export Plug-In . SVG Version: 6.00 Build 0)  -->
<!DOCTYPE svg PUBLIC "-//W3C//DTD SVG 1.1//EN" "http://www.w3.org/Graphics/SVG/1.1/DTD/svg11.dtd">
<svg version="1.1" id="Capa_1" xmlns="http://www.w3.org/2000/svg" xmlns:xlink="http://www.w3.org/1999/xlink" x="0px" y="0px"
	 viewBox="0 0 471.014 471.014" style="enable-background:new 0 0 471.014 471.014;" xml:space="preserve">
<g>
	<path d="M143.508,140.887l-16.911,55.468c-4.622-3.335-8.535-7.585-11.292-12.762c-4.759-8.948-5.761-19.215-2.804-28.92
		l36.198-118.729l72.611,22.143l-1.417,4.636l36.353-11.082l0.401-1.301c2.233-7.302-1.881-15.026-9.195-17.259L140.951,0.601
		C139.626,0.2,138.271,0,136.915,0c-2.248,0-4.481,0.547-6.5,1.625c-3.233,1.718-5.653,4.659-6.73,8.172L82.325,145.478
		c-9.609,31.501,4.347,64.467,31.689,80.288L69.355,372.194c-25.661-5.707-46.209-4.83-48.597,3.004
		c-2.851,9.357,21.118,24.953,53.541,34.834c32.426,9.889,61.03,10.328,63.879,0.971c2.388-7.842-14.187-20.041-38.662-29.613
		l44.663-146.42c13.378,1.523,55.378-3.227,70.801-48.226l-21.195-69.531L143.508,140.887z"/>
	<path d="M450.253,428.461c-2.389-7.832-22.935-8.711-48.599-3.004l-37.646-123.397l-6.995-23.066
		c11.122-6.445,20.411-15.777,26.542-27.303c8.672-16.273,10.521-35.319,5.145-52.949L347.327,63.069
		c-1.817-5.961-7.302-9.804-13.217-9.804c-1.341,0-2.695,0.2-4.051,0.608l-106.5,32.471c-3.511,1.071-6.454,3.489-8.178,6.732
		c-1.726,3.234-2.097,7.024-1.018,10.535l13.262,43.499l28.113,92.184c18.348,50.164,64.191,49.521,71.155,49.178l6.97,22.855
		l37.63,123.334c-24.475,9.574-41.05,21.766-38.663,29.615c2.85,9.348,31.455,8.918,63.88-0.973
		C429.134,453.417,453.117,437.819,450.253,428.461z M344.415,249.635l-16.912-55.482l-61.368-28.906l-16.436-53.895l72.613-22.136
		l36.214,118.731c2.957,9.696,1.955,19.962-2.82,28.928C352.948,242.049,349.037,246.294,344.415,249.635z"/>
</g>
<g>
</g>
<g>
</g>
<g>
</g>
<g>
</g>
<g>
</g>
<g>
</g>
<g>
</g>
<g>
</g>
<g>
</g>
<g>
</g>
<g>
</g>
<g>
</g>
<g>
</g>
<g>
</g>
<g>
</g>
</svg>
