<?xml version="1.0" encoding="iso-8859-1"?>
<!-- Generator: Adobe Illustrator 18.0.0, SVG Export Plug-In . SVG Version: 6.00 Build 0)  -->
<!DOCTYPE svg PUBLIC "-//W3C//DTD SVG 1.1//EN" "http://www.w3.org/Graphics/SVG/1.1/DTD/svg11.dtd">
<svg version="1.1" id="Capa_1" xmlns="http://www.w3.org/2000/svg" xmlns:xlink="http://www.w3.org/1999/xlink" x="0px" y="0px"
	 viewBox="0 0 297 297" style="enable-background:new 0 0 297 297;" xml:space="preserve">
<g>
	<path d="M148.497,103.652c1.964,0,3.879-0.793,5.268-2.182c1.379-1.391,2.173-3.305,2.173-5.258c0-1.965-0.794-3.879-2.173-5.268
		c-1.389-1.379-3.304-2.172-5.268-2.172c-1.955,0-3.869,0.793-5.258,2.172c-1.389,1.389-2.182,3.303-2.182,5.268
		c0,1.953,0.793,3.867,2.182,5.258C144.628,102.859,146.542,103.652,148.497,103.652z"/>
	<path d="M297,144.338c0-11.186-7.393-20.816-17.935-25.018c2.112-3.303,2.147-7.691-0.265-11.086
		c-29.557-41.635-78.267-66.49-130.3-66.49c-52.036,0-100.748,24.858-130.302,66.492c-2.41,3.395-2.377,7.779-0.264,11.084
		C7.394,123.52,0,133.152,0,144.338c0,6.584,2.56,12.629,6.816,17.346C2.56,166.4,0,172.447,0,179.031
		c0,10.207,6.158,19.119,15.246,23.791v17.561c0,19.229,15.627,34.873,34.835,34.873h196.838c19.208,0,34.835-15.645,34.835-34.873
		v-17.561C290.842,198.15,297,189.238,297,179.031c0-6.584-2.56-12.631-6.816-17.348C294.44,156.967,297,150.922,297,144.338z
		 M277.16,179.031c0,3.955-4.636,7.426-9.92,7.426H146.492l14.854-14.854H267.24C272.524,171.604,277.16,175.074,277.16,179.031z
		 M99.945,204.945l-33.34-33.342l66.681,0.002L99.945,204.945z M29.76,186.457c-5.284,0-9.92-3.471-9.92-7.426
		c0-3.957,4.636-7.428,9.92-7.428h8.786L53.4,186.457H29.76z M29.76,151.764c-5.284,0-9.92-3.469-9.92-7.426s4.636-7.428,9.92-7.428
		h237.48c5.284,0,9.92,3.471,9.92,7.428s-4.636,7.426-9.92,7.426H29.76z M148.501,61.584c44.496,0,86.173,20.684,112.179,55.486
		H36.319C62.324,82.27,104.002,61.584,148.501,61.584z M246.919,235.416H50.081c-8.268,0-14.995-6.742-14.995-15.033v-14.086H73.24
		l19.691,19.691c1.938,1.938,4.476,2.906,7.015,2.906c2.538,0,5.077-0.969,7.015-2.906l19.692-19.691h135.262v14.086
		C261.914,228.674,255.186,235.416,246.919,235.416z"/>
	<path d="M126.644,80.996c1.964,0,3.879-0.795,5.257-2.184c1.39-1.389,2.183-3.303,2.183-5.258c0-1.965-0.793-3.879-2.183-5.268
		c-1.378-1.379-3.293-2.172-5.257-2.172c-1.965,0-3.879,0.793-5.258,2.172c-1.389,1.389-2.183,3.303-2.183,5.268
		c0,1.955,0.794,3.869,2.183,5.258C122.765,80.201,124.679,80.996,126.644,80.996z"/>
	<path d="M170.351,80.996c1.964,0,3.879-0.795,5.268-2.184c1.379-1.389,2.183-3.303,2.183-5.258c0-1.965-0.804-3.879-2.183-5.268
		c-1.389-1.379-3.304-2.172-5.268-2.172c-1.954,0-3.869,0.793-5.258,2.172c-1.389,1.389-2.183,3.303-2.183,5.268
		c0,1.955,0.794,3.869,2.183,5.258C166.481,80.201,168.396,80.996,170.351,80.996z"/>
	<path d="M82.926,103.652c1.965,0,3.879-0.793,5.268-2.182c1.379-1.391,2.172-3.305,2.172-5.258c0-1.965-0.793-3.879-2.172-5.268
		c-1.389-1.379-3.303-2.172-5.268-2.172c-1.954,0-3.868,0.793-5.258,2.172c-1.388,1.389-2.183,3.303-2.183,5.268
		c0,1.953,0.795,3.867,2.183,5.258C79.058,102.859,80.972,103.652,82.926,103.652z"/>
	<path d="M214.067,103.652c1.965,0,3.879-0.793,5.269-2.182c1.378-1.391,2.172-3.305,2.172-5.258c0-1.965-0.794-3.879-2.172-5.268
		c-1.39-1.379-3.314-2.172-5.269-2.172s-3.868,0.793-5.257,2.172c-1.39,1.389-2.183,3.303-2.183,5.268
		c0,1.953,0.793,3.879,2.183,5.258C210.199,102.859,212.113,103.652,214.067,103.652z"/>
</g>
<g>
</g>
<g>
</g>
<g>
</g>
<g>
</g>
<g>
</g>
<g>
</g>
<g>
</g>
<g>
</g>
<g>
</g>
<g>
</g>
<g>
</g>
<g>
</g>
<g>
</g>
<g>
</g>
<g>
</g>
</svg>
