<?xml version="1.0" encoding="iso-8859-1"?>
<!-- Generator: Adobe Illustrator 16.0.0, SVG Export Plug-In . SVG Version: 6.00 Build 0)  -->
<!DOCTYPE svg PUBLIC "-//W3C//DTD SVG 1.1//EN" "http://www.w3.org/Graphics/SVG/1.1/DTD/svg11.dtd">
<svg version="1.1" id="Capa_1" xmlns="http://www.w3.org/2000/svg" xmlns:xlink="http://www.w3.org/1999/xlink" x="0px" y="0px"
	 width="204.088px" height="204.088px" viewBox="0 0 204.088 204.088" style="enable-background:new 0 0 204.088 204.088;"
	 xml:space="preserve">
<g>
	<g>
		<path d="M147.046,83.75c0.646,0.999,1.731,1.543,2.838,1.543c0.628,0,1.263-0.175,1.829-0.541
			c1.564-1.012,2.014-3.101,1.002-4.667c-0.104-0.16-10.495-16.645-1.679-27.884c4.873-6.212,5.724-14.037,2.463-22.629
			c-2.329-6.136-5.976-10.535-6.13-10.719c-1.195-1.43-3.324-1.62-4.754-0.424c-1.43,1.195-1.619,3.32-0.428,4.75
			c0.164,0.199,11.729,14.412,3.537,24.856C133.928,63.076,146.505,82.913,147.046,83.75z"/>
		<path d="M169.699,83.75c0.646,0.999,1.73,1.543,2.837,1.543c0.628,0,1.263-0.175,1.83-0.541c1.565-1.012,2.014-3.101,1.002-4.667
			c-0.103-0.16-10.495-16.645-1.679-27.884c4.873-6.212,5.724-14.037,2.463-22.629c-2.33-6.136-5.977-10.535-6.131-10.719
			c-1.194-1.43-3.324-1.62-4.754-0.424c-1.428,1.194-1.619,3.319-0.428,4.749c0.118,0.143,11.746,14.392,3.537,24.857
			C156.58,63.076,169.158,82.913,169.699,83.75z"/>
		<path d="M27.983,85.314c0.646,0.999,1.73,1.543,2.837,1.543c0.628,0,1.263-0.175,1.829-0.541c1.565-1.012,2.014-3.102,1.001-4.667
			c-0.103-0.16-10.495-16.645-1.678-27.884c4.873-6.212,5.724-14.037,2.463-22.629c-2.33-6.136-5.976-10.535-6.13-10.719
			c-1.195-1.43-3.323-1.62-4.754-0.424c-1.428,1.194-1.619,3.319-0.428,4.749c0.119,0.143,11.746,14.392,3.538,24.857
			C14.863,64.64,27.441,84.476,27.983,85.314z"/>
		<path d="M50.635,85.314c0.646,0.999,1.73,1.543,2.837,1.543c0.628,0,1.263-0.175,1.83-0.541c1.565-1.012,2.014-3.102,1.001-4.667
			c-0.103-0.16-10.494-16.645-1.678-27.884c4.873-6.212,5.724-14.037,2.464-22.629C54.76,25,51.113,20.601,50.959,20.417
			c-1.195-1.43-3.323-1.62-4.754-0.424c-1.428,1.194-1.619,3.319-0.428,4.749c0.119,0.143,11.746,14.392,3.537,24.857
			C37.516,64.64,50.094,84.476,50.635,85.314z"/>
		<path d="M192.884,159.813h-7.159c-1.681-42.103-34.652-76.29-76.24-79.9v-3.437c4.223-2.526,6.845-7.054,6.845-12.088
			c0-7.792-6.341-14.132-14.133-14.132c-0.051,0-0.254,0-0.305,0c-7.793,0-14.133,6.34-14.133,14.132
			c0,5.034,2.623,9.563,6.844,12.088v3.437c-41.588,3.61-74.559,37.797-76.24,79.9h-7.159C5.026,159.813,0,164.839,0,171.016v4.22
			c0,6.182,5.026,11.21,11.203,11.21h181.682c6.178,0,11.203-5.028,11.203-11.21v-4.22
			C204.087,164.839,199.061,159.813,192.884,159.813z M94.507,64.388c0-4.07,3.312-7.382,7.383-7.382c0.052,0,0.254,0,0.305,0
			c4.071,0,7.383,3.312,7.383,7.382c0,3.043-1.846,5.735-4.703,6.856c-1.292,0.507-2.141,1.754-2.141,3.142v5.211h-1.383v-5.211
			c0-1.388-0.85-2.634-2.141-3.142C96.353,70.122,94.507,67.431,94.507,64.388z M197.337,175.235c0,2.459-1.998,4.46-4.453,4.46
			H11.202c-2.456,0-4.453-2.001-4.453-4.46v-4.22c0-2.455,1.998-4.452,4.453-4.452h5.549c0.031,0.001,0.06,0.005,0.091,0.005
			h121.201c1.863,0,3.375-1.511,3.375-3.375c0-1.863-1.512-3.375-3.375-3.375H25.122c1.766-40.712,35.356-73.308,76.457-73.472
			h0.928c41.103,0.164,74.69,32.76,76.457,73.472h-19.092c-1.864,0-3.375,1.512-3.375,3.375c0,1.864,1.511,3.375,3.375,3.375
			l26.063-0.005h6.948c2.456,0,4.453,1.997,4.453,4.452V175.235z"/>
	</g>
</g>
<g>
</g>
<g>
</g>
<g>
</g>
<g>
</g>
<g>
</g>
<g>
</g>
<g>
</g>
<g>
</g>
<g>
</g>
<g>
</g>
<g>
</g>
<g>
</g>
<g>
</g>
<g>
</g>
<g>
</g>
</svg>
