<?xml version="1.0" encoding="iso-8859-1"?>
<!-- Generator: Adobe Illustrator 16.0.0, SVG Export Plug-In . SVG Version: 6.00 Build 0)  -->
<!DOCTYPE svg PUBLIC "-//W3C//DTD SVG 1.1//EN" "http://www.w3.org/Graphics/SVG/1.1/DTD/svg11.dtd">
<svg version="1.1" id="Capa_1" xmlns="http://www.w3.org/2000/svg" xmlns:xlink="http://www.w3.org/1999/xlink" x="0px" y="0px"
	 width="480px" height="480px" viewBox="0 0 480 480" style="enable-background:new 0 0 480 480;" xml:space="preserve">
<g>
	<path d="M231.7,249.9c-0.6-0.801-1-1.801-1.1-2.801c-12.9-0.899-25.4-3.8-37.4-8.5c-8.3,9.2-18.8,16.1-30.4,20.1L240.1,480
		l77.3-221.2c-8.3-2.899-16.1-7.3-22.9-13v23.3c0,10.4-16.199,10.4-16.199,0v-12.3c-3.6,2.9-7.6,4.9-11.801,5.9v71
		c0,10.399-16.199,10.399-16.199,0V262.6C243.201,260.8,236.6,256.5,231.7,249.9z"/>
	<path d="M75.4,189.1c0,34.8,28.2,63,63,63c7.3,0,14.3-1.199,20.8-3.5c12.5-4.399,23.1-12.5,30.6-23.1c15.2,7.1,32.2,11.1,50.2,11.1
		c17.9,0,35-4,50.201-11.1c7.499,10.6,18.199,18.8,30.6,23.1c6.5,2.301,13.5,3.5,20.8,3.5c34.8,0,63-28.2,63-63
		c0-29.2-19.8-53.7-46.8-60.9c0.3-3.3,0.399-6.6,0.399-9.9C358.5,53,305.5,0,240.1,0c-65.4,0-118.4,53-118.4,118.4
		c0,3.3,0.1,6.6,0.4,9.9C95.2,135.4,75.4,160,75.4,189.1z"/>
</g>
<g>
</g>
<g>
</g>
<g>
</g>
<g>
</g>
<g>
</g>
<g>
</g>
<g>
</g>
<g>
</g>
<g>
</g>
<g>
</g>
<g>
</g>
<g>
</g>
<g>
</g>
<g>
</g>
<g>
</g>
</svg>
