<?xml version="1.0" encoding="utf-8"?>
<!-- Generator: Adobe Illustrator 16.0.0, SVG Export Plug-In . SVG Version: 6.00 Build 0)  -->
<!DOCTYPE svg PUBLIC "-//W3C//DTD SVG 1.1//EN" "http://www.w3.org/Graphics/SVG/1.1/DTD/svg11.dtd">
<svg version="1.1" id="Layer_1" xmlns="http://www.w3.org/2000/svg" xmlns:xlink="http://www.w3.org/1999/xlink" x="0px" y="0px"
	 width="512px" height="512px" viewBox="0 0 512 512" enable-background="new 0 0 512 512" xml:space="preserve">
<g>
	<path d="M479.959,389.257l-124.064-98.113c43.096-72.02,33.83-166.644-28.231-228.706c-73.233-73.224-191.974-73.224-265.189,0
		c-73.249,73.241-73.266,191.99-0.032,265.223c62.053,62.045,156.66,71.305,228.697,28.223l98.113,124.072
		c11.433,14.454,28.502,23.336,46.9,24.415c18.396,1.068,36.372-5.774,49.41-18.803c13.035-13.038,19.87-31.014,18.803-49.41
		C503.295,417.752,494.421,400.691,479.959,389.257z M244.811,312.704c-10.202-2.947-25.361-7.166-35.984-6.89
		c-39.791,1.02-49.298,49.022-87.76-6.801c-10.559-15.297-10.608-24.827-13.005-34.787c-5.458-22.446-23.319-35.273-27.808-38.689
		c-59.758-45.613,11.58-95.613,17.086-101.112c24.488-24.494,19.969-26.446,38.707-41.757c31.902-26.107,75.759,1.798,84.762,6.559
		c37.428,19.725,40.066-0.77,72.375,24.056c37.005,28.431,32.924,63.007,14.885,93.29c-6.172,10.373,2.281,35.986-13.524,72.715
		C279.775,313.611,260.098,317.117,244.811,312.704z M458.451,458.458c-11.336,11.336-33.15,7.896-48.745-7.693
		c-15.579-15.586-19.029-37.4-7.692-48.737c11.336-11.336,33.15-7.887,48.73,7.691C466.339,425.308,469.788,447.122,458.451,458.458
		z"/>
	<path d="M130.652,130.668c-22.607,22.608-22.591,59.256,0.018,81.864c22.607,22.625,59.272,22.625,81.863,0.024
		c22.609-22.608,22.625-59.281,0.018-81.897C189.942,108.043,153.262,108.068,130.652,130.668z"/>
</g>
</svg>
