<?xml version="1.0" encoding="iso-8859-1"?>
<!-- Generator: Adobe Illustrator 16.0.0, SVG Export Plug-In . SVG Version: 6.00 Build 0)  -->
<!DOCTYPE svg PUBLIC "-//W3C//DTD SVG 1.1//EN" "http://www.w3.org/Graphics/SVG/1.1/DTD/svg11.dtd">
<svg version="1.1" id="Capa_1" xmlns="http://www.w3.org/2000/svg" xmlns:xlink="http://www.w3.org/1999/xlink" x="0px" y="0px"
	 width="190.399px" height="190.4px" viewBox="0 0 190.399 190.4" style="enable-background:new 0 0 190.399 190.4;"
	 xml:space="preserve">
<g>
	<path d="M189.051,69.999c-4.793-2.396-10.221-3.628-15.423-3.096c1.631-4.199,2.11-9.336-1.101-12.223
		c-4.635-4.166-10.576-2.31-15.666,0.172c-1.871-3.545-3.901-7.264-4.593-11.098c-0.429-2.381-3.671-2.375-4.794-0.627
		c-1.971,3.068-4.648,5.351-7.328,7.694c-3.236-4.242-8.143-9.281-13.479-6.931c-0.565,0.249-1.064,0.547-1.533,0.867
		c-6.385-9.105-15.091-8.678-22.95-0.431c-8.801-12.77-21.632-15.007-30.888-1.415c-11.187-7.921-23.561-6.018-21.038,9.471
		c-6.565,0.306-11.821,6.743-15.005,12.018c-3.617-3.888-9.095-8.17-14.089-6.516c-5.445,1.803-6.987,7.147-7.058,12.357
		c-3.876-0.402-8.019-0.389-11.484-1.843c-1.276-0.535-2.607,0.784-2.618,1.994c-0.04,4.356,0.099,8.899,2.931,12.419
		c1.523,1.893,4.244,2.434,6.848,2.744c-0.696,0.706-1.31,1.497-1.781,2.407c-2.321,4.487-0.62,9.628,1.957,13.585
		c1.695,2.602,5.869,0.199,4.18-2.443c-2.848-4.454-3.572-11.329,3.282-12.125c2.558-0.297,4.888,0.628,6.603,2.519
		c2.567,2.83,2.05,7.253,1.639,10.724c-5.058,0.227-9.866,1.131-14.166,3.153c-0.197,0.092-0.263,0.248-0.353,0.392
		c-0.5-0.793-1.02-1.556-1.507-2.367c-1.123-1.873-3.686-0.567-3.345,1.41c6.655,38.529,53.031,53.852,86.842,53.906
		c38.241,0.062,79.034-19.632,92.26-57.357c1.278-3.645-2.716-5.568-5.463-4.24c-0.824-0.592-1.941-0.909-3.339-0.715
		c-1.755,0.244-3.502,0.518-5.251,0.784c4.302-8.373,9.43-15.156,17.707-20.409C190.697,73.731,190.994,70.97,189.051,69.999z
		 M70.196,48.166c1.163,1.068,2.981,0.888,3.819-0.492c7.045-11.597,19.406-8.797,25.69,2.02c1.025,1.763,3.195,1.422,4.285,0
		c8.692-5.69,14.707-6.098,18.119-1.372c-2.027,4.28-1.178,10.188-0.048,14.567c0.173,0.667,0.571,1.027,1.031,1.187
		c-1.112,0.977-2.196,2.081-3.192,3.447c-1.461-2.501-2.914-5.052-3.656-7.777c-0.451-1.659-2.998-2.652-4.201-1.11
		c-3.518,4.511-7.797,7.632-10.762,12.315c-3.744-3.317-9.042-7.324-13.684-5.256c-6.121,2.728-4.437,9.828-2.853,14.987
		c0.455,1.483,2.518,0.848,2.277-0.628c-2.21-5.297-0.141-8.519,6.209-9.666c2.645,1.489,5.007,3.33,7.085,5.524
		c0.957,0.894,2.764,0.86,3.4-0.438c2.055-4.189,5.863-7.124,9.193-10.382c1.385,2.943,3.213,5.717,4.754,8.546
		c0.863,1.586,3.438,1.647,4.285,0c2.457-4.781,5.617-9.139,11.478-9.441c7.798-0.403,7.06,9.789,6.103,14.715
		c-16.307-6.443-42.189,3.895-35.488,26.673c-0.725,0.065-1.454,0.097-2.18,0.155c-4.783-9.401-11.177-21.812-19.871-23.812
		c1.447-5.217,0.669-11.301-2.156-15.68c-3.719-5.766-10.789-5.166-16.468-3.058c-1.923-5.09-4.726-9.524-10.188-10.614
		C53.341,43.062,63.693,42.191,70.196,48.166z M51.77,102.945c-7.052-1.281-14.369-2.526-21.371-2.743
		c0.566-3.812,0.048-7.922-1.575-11.258c0.027-0.033,0.035-0.083,0.061-0.117c6.329-2.991,12.784-4.555,19.758-2.849
		c4.078,0.998,7.017,3.415,9.627,6.275c-3.273,2.005-5.749,5.142-6.592,9.438C51.587,102.163,51.65,102.571,51.77,102.945z
		 M29.468,86.653c2.197-8.401,11.699-8.623,19.072-6.866c6.745,1.607,12,5.203,16.403,10.058c-0.857,0.138-1.695,0.339-2.516,0.583
		C54.599,80.503,40.51,80.912,29.468,86.653z M56.233,102.948c0.92-3.244,2.71-5.418,5.392-6.71
		c0.358,0.443,0.716,0.886,1.077,1.326c1.358,1.653,3.471-0.451,2.735-2.109c-0.047-0.105-0.107-0.194-0.155-0.298
		c2.761-0.418,5.453,0.125,8.145,0.675c2.428,3.426,4.633,7.016,6.939,10.534c-3.694-0.101-7.4-0.278-11.132-0.638
		c-4.149-0.401-8.674-1.187-13.373-2.041C56.008,103.472,56.148,103.247,56.233,102.948z M77.747,96.505
		c0.052,0.004,0.103,0.014,0.155,0.018c2.253,0.144,2.867-2.995,1.103-4.07c-1.594-0.972-3.345-1.677-5.156-2.164
		c-0.418-0.573-0.783-1.174-1.237-1.727c1.209-0.98,2.364-1.631,3.496-2.132c-0.101,1.912,2.414,2.083,3.349,0.836
		c0.385-0.512,0.692-1.081,1.008-1.643c3.328,0.301,6.362,2.694,9.23,6.848c2.944,4.263,5.103,8.995,7.458,13.607
		c-4.814,0.289-9.655,0.395-14.52,0.324C80.994,103.085,79.47,99.736,77.747,96.505z M17.039,82.199
		c-0.856,0.082-1.694,0.274-2.51,0.526c-0.011-0.003-0.017-0.011-0.028-0.014c-2.173-0.631-4.394-1.084-6.551-1.768
		c-3.276-1.039-3.663-4.737-3.748-7.983c3.762,0.515,7.552-0.044,11.338,1.249c1.274,0.435,2.255-0.685,2.39-1.82
		c0.466-3.94,0.897-11.223,6.632-10.125c4.073,0.78,7.263,4.781,9.995,7.574c1.843,1.884,4.298-0.735,2.958-2.73
		c6.572-9.886,18.813-16.103,22.096-0.065c0.242,1.184,1.803,2.155,2.969,1.685c5.964-2.405,12.462-3.758,14.78,3.944
		c0.931,3.092,0.202,6.221-0.488,9.323c-2.492,0.614-5.146,2.089-7.979,4.689c-10.865-12.37-40.489-20.045-41.954-0.63
		C24.686,83.399,21.4,81.781,17.039,82.199z M175.535,102.71c-15.037,30.982-48.81,45.176-82.397,46.057
		c-35.48,0.932-62.436-14.938-80.989-43.428c0.068-0.002,0.122,0.046,0.193,0.03c8-1.853,20.189,2.116,27.991,3.342
		c10.804,1.696,21.592,3.47,32.456,4.741C107.629,117.529,141.359,107.523,175.535,102.71z M123.119,89.348
		c7.214-0.813,12.568,5.316,14.649,11.524c-7.616,1.312-15.228,2.539-22.866,3.51c0.01-0.116,0.022-0.231,0-0.364
		C113.768,97.595,115.632,90.191,123.119,89.348z M165.053,95.603c-0.072,0.201-0.057,0.385-0.077,0.576
		c-7.757,1.264-15.473,2.651-23.176,4c-0.017-0.136,0.002-0.259-0.046-0.404c-2.735-8.488-10.316-16.332-20.008-14.434
		c-9.543,1.869-12.1,10.945-9.008,19.271c0.002,0.007,0.008,0.011,0.01,0.018c-1.854,0.223-3.706,0.458-5.564,0.646
		c-2.828-12.055,4.159-20.846,15.996-23.372c12.055-2.573,20.825,4.051,24.48,15c0.746,2.233,4.317,1.952,4.232-0.573
		c-0.232-6.921-3.344-11.869-7.877-15.035c0.038-0.098,0.104-0.161,0.131-0.27c4.389-16.75-8.175-25.142-18.627-18.756
		c0.002-0.115,0.031-0.219,0.014-0.341c-0.467-3.128-0.797-6.24-0.125-9.245c1.554,0.171,3.242-1.511,2.347-3.396
		c-0.131-0.277-0.274-0.511-0.408-0.776c3.46-3.198,9.659,6.194,10.304,7.148c0.926,1.37,2.596,1.564,3.838,0.495
		c2.461-2.117,4.898-4.064,7.097-6.291c1.345,3.429,3.284,6.759,4.845,9.895c0.666,1.338,2.423,1.593,3.637,0.954
		c2.323-1.223,10.254-5.98,12.057-1.147c0.908,2.435-0.266,5.729-0.905,8.625c-1.831,0.713-3.604,1.654-5.241,2.978
		c-7.619,6.161-11.205,15.964-8.248,25.438c0.336,1.078,2.1,0.93,2.029-0.274c-0.895-15.119,10.758-27.43,25.091-23.278
		C174.217,78.84,168.35,86.392,165.053,95.603z"/>
</g>
<g>
</g>
<g>
</g>
<g>
</g>
<g>
</g>
<g>
</g>
<g>
</g>
<g>
</g>
<g>
</g>
<g>
</g>
<g>
</g>
<g>
</g>
<g>
</g>
<g>
</g>
<g>
</g>
<g>
</g>
</svg>
