<?xml version="1.0" encoding="iso-8859-1"?>
<!-- Generator: Adobe Illustrator 16.0.0, SVG Export Plug-In . SVG Version: 6.00 Build 0)  -->
<!DOCTYPE svg PUBLIC "-//W3C//DTD SVG 1.1//EN" "http://www.w3.org/Graphics/SVG/1.1/DTD/svg11.dtd">
<svg version="1.1" id="Capa_1" xmlns="http://www.w3.org/2000/svg" xmlns:xlink="http://www.w3.org/1999/xlink" x="0px" y="0px"
	 width="88.098px" height="88.098px" viewBox="0 0 88.098 88.098" style="enable-background:new 0 0 88.098 88.098;"
	 xml:space="preserve">
<g>
	<path d="M67.05,6.985C65.564,3.045,55.652,0,43.638,0C30.599,0,20.027,3.586,20.027,8.011c0,0.014,0.004,0.026,0.004,0.039
		c-1.475,1.806-2.361,4.111-2.361,6.625v58.96c0,4.52,2.859,9.008,6.867,10.762c3.502,2.188,10.986,3.701,19.656,3.701
		c9.377,0,17.368-1.77,20.434-4.251c3.438-2.024,5.801-6.104,5.801-10.212v-58.96C70.427,11.631,69.122,8.9,67.05,6.985z
		 M43.53,1.471c11.551,0,20.912,2.877,20.912,6.426c0,3.549-9.36,6.425-20.912,6.425c-11.549,0-20.912-2.876-20.912-6.425
		C22.618,4.348,31.982,1.471,43.53,1.471z M21.599,17.994c0-0.724,0.588-1.311,1.311-1.311c0.725,0,1.311,0.587,1.311,1.311v41.927
		c0,0.724-0.586,1.312-1.311,1.312c-0.723,0-1.311-0.588-1.311-1.312V17.994z M65.509,79.197c-0.601,0.277-1.326,0.612-2.162,0.998
		c-0.836,0.39-1.832,0.681-2.901,1.058c-0.537,0.185-1.099,0.374-1.679,0.571c-0.575,0.211-1.202,0.31-1.831,0.478
		c-0.636,0.151-1.285,0.308-1.951,0.468c-0.332,0.077-0.67,0.155-1.013,0.234c-0.346,0.052-0.692,0.104-1.045,0.156
		c-0.705,0.104-1.42,0.209-2.146,0.316c-0.36,0.055-0.729,0.107-1.094,0.161c-0.369,0.022-0.742,0.047-1.113,0.071
		c-1.493,0.082-3.009,0.232-4.528,0.182c-0.76-0.013-1.52-0.025-2.275-0.039c-0.754-0.057-1.506-0.111-2.25-0.168
		c-1.496-0.074-2.943-0.352-4.352-0.548c-0.703-0.09-1.385-0.255-2.055-0.396c-0.666-0.151-1.324-0.268-1.953-0.44
		c-1.258-0.332-2.447-0.646-3.518-1.021c-1.084-0.334-2.051-0.72-2.906-1.057c-0.854-0.34-1.584-0.676-2.18-0.957
		c-0.596-0.283-1.053-0.527-1.361-0.699c-0.311-0.168-0.471-0.266-0.471-0.266s0.176,0.066,0.512,0.176
		c0.33,0.117,0.828,0.258,1.451,0.454c0.625,0.188,1.393,0.398,2.268,0.638c0.883,0.222,1.871,0.478,2.963,0.709
		c1.082,0.263,2.275,0.451,3.523,0.701c0.623,0.125,1.275,0.191,1.936,0.295c0.664,0.08,1.33,0.229,2.023,0.283
		c1.379,0.145,2.799,0.314,4.252,0.379c0.725,0.045,1.455,0.088,2.188,0.133c0.734,0.002,1.473,0.004,2.211,0.008
		c1.475,0.065,2.945-0.06,4.396-0.117c0.363-0.018,0.726-0.034,1.084-0.053c0.357-0.036,0.713-0.074,1.068-0.11
		c0.707-0.074,1.408-0.147,2.096-0.22c0.347-0.036,0.688-0.071,1.025-0.106c0.334-0.06,0.666-0.116,0.994-0.174
		c0.658-0.108,1.303-0.216,1.93-0.32c1.264-0.176,2.43-0.471,3.516-0.727c0.543-0.126,1.064-0.246,1.56-0.361
		c0.498-0.108,0.976-0.2,1.402-0.351c0.87-0.262,1.631-0.488,2.258-0.676c1.258-0.365,1.989-0.561,1.989-0.561
		S66.699,78.636,65.509,79.197z M42.884,13.539h2.985c3.584,0,4.855-1.489,4.855-2.765s-1.271-2.765-4.855-2.765h-0.95l3.696-4.788
		c-1.157-1.261-7.11-1.433-8.524-0.196l3.266,4.984h-0.473c-4.262,0-4.594,2.116-4.594,2.765S38.622,13.539,42.884,13.539z
		 M42.884,9.058h1.158l0.031,0.048l0.037-0.048h1.759c2.242,0,3.808,0.706,3.808,1.717c0,1.011-1.563,1.716-3.808,1.716h-2.985
		c-2.186,0-3.545-0.657-3.545-1.716S40.698,9.058,42.884,9.058z"/>
</g>
<g>
</g>
<g>
</g>
<g>
</g>
<g>
</g>
<g>
</g>
<g>
</g>
<g>
</g>
<g>
</g>
<g>
</g>
<g>
</g>
<g>
</g>
<g>
</g>
<g>
</g>
<g>
</g>
<g>
</g>
</svg>
