<?xml version="1.0" encoding="iso-8859-1"?>
<!-- Generator: Adobe Illustrator 16.0.0, SVG Export Plug-In . SVG Version: 6.00 Build 0)  -->
<!DOCTYPE svg PUBLIC "-//W3C//DTD SVG 1.1//EN" "http://www.w3.org/Graphics/SVG/1.1/DTD/svg11.dtd">
<svg version="1.1" id="Capa_1" xmlns="http://www.w3.org/2000/svg" xmlns:xlink="http://www.w3.org/1999/xlink" x="0px" y="0px"
	 width="120.167px" height="120.167px" viewBox="0 0 120.167 120.167" style="enable-background:new 0 0 120.167 120.167;"
	 xml:space="preserve">
<g>
	<g>
		<circle cx="19.718" cy="29.812" r="9.289"/>
		<path d="M37.786,69.71c-0.25-2.15-2.07-3.771-4.234-3.771H33.55l-7.389,0.006V55.79c2.479,2.174,5.281,3.545,8.941,3.545
			c2.153,0,4.61-0.482,7.465-1.543l0.71,1.172c0.188,0.311,0.518,0.482,0.856,0.482c0.177,0,0.354-0.047,0.517-0.145
			c0.473-0.285,0.624-0.9,0.338-1.373l-0.732-1.211c0.879-0.975,1.204-2.387,0.702-3.697c-0.661-1.729-2.512-2.637-4.264-2.184
			l-3.575-5.908c-0.286-0.473-0.901-0.623-1.373-0.338c-0.473,0.287-0.624,0.9-0.338,1.373l3.346,5.527
			c-5.97,1.955-7.653,0.021-13.565-8.059c-0.014-0.02-0.031-0.033-0.047-0.053c-1.225-1.912-3.373-3.201-5.426-3.705
			c0,0-0.977-0.293-2.018-0.27c-0.996,0.021-2.105,0.254-2.105,0.254l-0.027,0.004c-3.125,0.766-6.453,3.311-6.453,7.131
			l0.002,20.504c0,4.457,4.426,7.215,8.523,7.213c0.229,0,0.457-0.02,0.686-0.035l11.434-0.01l2.439,21.055
			c0.252,2.172,2.096,3.771,4.229,3.771c0.164,0,0.33-0.011,0.498-0.029c2.336-0.27,4.014-2.387,3.742-4.725L37.786,69.71z"/>
		<path d="M28.632,79.302c0-1.99-1.615-3.605-3.607-3.605H7.212V47.09c0-1.99-1.615-3.605-3.607-3.605S0,45.101,0,47.09v32.211
			c0,1.32,0.713,2.473,1.771,3.102c-0.688,1.227-1.08,2.637-1.08,4.139v10.082c0,1.668,1.352,3.021,3.018,3.021
			c1.668,0,3.021-1.353,3.021-3.021V86.542c0-1.363,1.107-2.472,2.471-2.472h10.082c1.361,0,2.471,1.106,2.471,2.472v10.082
			c0,1.668,1.352,3.02,3.02,3.02s3.02-1.352,3.02-3.02V86.542c0-1.476-0.377-2.863-1.041-4.074
			C27.87,81.855,28.632,80.667,28.632,79.302z"/>
		<circle cx="100.445" cy="29.812" r="9.289"/>
		<path d="M102.527,74.511c4.101,0.002,8.523-2.756,8.523-7.213V46.793c0-3.82-3.326-6.365-6.451-7.131l-0.026-0.004
			c0,0-1.111-0.232-2.105-0.254c-1.041-0.023-2.018,0.27-2.018,0.27c-2.054,0.504-4.201,1.793-5.427,3.705
			c-0.016,0.02-0.032,0.033-0.047,0.053c-6.19,8.461-7.75,10.18-14.444,7.752l3.159-5.221c0.287-0.473,0.136-1.086-0.338-1.373
			c-0.472-0.283-1.086-0.135-1.373,0.338l-3.498,5.779c-1.416,0.037-2.737,0.908-3.276,2.313c-0.372,0.975-0.286,2.004,0.14,2.871
			l-1.232,2.037c-0.286,0.473-0.135,1.088,0.338,1.373c0.162,0.098,0.34,0.146,0.517,0.146c0.339,0,0.669-0.172,0.856-0.482
			l0.938-1.549c0.168,0.098,0.338,0.193,0.525,0.264c2.99,1.145,5.543,1.656,7.777,1.656c3.66,0,6.461-1.371,8.94-3.545v10.154
			l-7.389-0.006c-0.002,0-0.002,0-0.005,0c-2.163,0-3.983,1.621-4.231,3.771l-2.879,24.828c-0.271,2.338,1.403,4.455,3.744,4.725
			c0.166,0.02,0.33,0.029,0.494,0.029c2.135,0,3.977-1.601,4.229-3.771l2.441-21.055l11.434,0.01
			C102.068,74.491,102.3,74.511,102.527,74.511z"/>
		<path d="M120.167,79.302V47.09c0-1.99-1.614-3.605-3.604-3.605c-1.992,0-3.607,1.615-3.607,3.605v28.605H95.143
			c-1.992,0-3.607,1.615-3.607,3.604c0,1.365,0.76,2.556,1.879,3.166c-0.662,1.211-1.039,2.601-1.039,4.074v10.082
			c0,1.668,1.352,3.021,3.02,3.021c1.666,0,3.021-1.353,3.021-3.021v-10.08c0-1.363,1.106-2.472,2.472-2.472h10.081
			c1.363,0,2.472,1.106,2.472,2.472v10.082c0,1.668,1.352,3.02,3.02,3.02s3.02-1.352,3.02-3.02V86.542
			c0-1.502-0.393-2.912-1.08-4.14C119.454,81.773,120.167,80.622,120.167,79.302z"/>
		<path d="M82.837,63.538c0-1.908-1.547-3.456-3.455-3.456H39.3c-1.908,0-3.455,1.547-3.455,3.456s1.547,3.455,3.455,3.455h4.74
			v30.684h30.601V66.993h4.741C81.29,66.993,82.837,65.445,82.837,63.538z"/>
	</g>
</g>
<g>
</g>
<g>
</g>
<g>
</g>
<g>
</g>
<g>
</g>
<g>
</g>
<g>
</g>
<g>
</g>
<g>
</g>
<g>
</g>
<g>
</g>
<g>
</g>
<g>
</g>
<g>
</g>
<g>
</g>
</svg>
